HIERARCHY
ROOT hip
{
	OFFSET 0.000000 0.000000 0.000000 
	CHANNELS 6 Xposition Yposition Zposition Xrotation Zrotation Yrotation
	JOINT abdomen
	{
		OFFSET 0.000000 3.402643 0.000000 
		CHANNELS 3 Xrotation Zrotation Yrotation
		JOINT chest
		{
			OFFSET 0.000000 8.438565 -0.680529 
			CHANNELS 3 Xrotation Zrotation Yrotation
			JOINT neck
			{
				OFFSET 0.000000 10.207942 -0.272212 
				CHANNELS 3 Xrotation Zrotation Yrotation
				JOINT head
				{
					OFFSET 0.000000 3.130431 0.000000 
					CHANNELS 3 Xrotation Zrotation Yrotation
					End Site
					{
						OFFSET 0.000000 3.130435 0.000000 
					}
				}
			}
			JOINT lCollar
			{
				OFFSET 3.470700 6.669187 -0.816635 
				CHANNELS 3 Yrotation Zrotation Xrotation
				JOINT lShldr
				{
					OFFSET 3.198488 0.000000 0.000000 
					CHANNELS 3 Zrotation Yrotation Xrotation
					JOINT lForeArm
					{
						OFFSET 10.139888 0.000000 0.000000 
						CHANNELS 3 Yrotation Zrotation Xrotation
						JOINT lHand
						{
							OFFSET 8.370511 0.000000 0.000000 
							CHANNELS 3 Zrotation Yrotation Xrotation
							End Site
							{
								OFFSET 4.083176 0.000000 0.000000 
							}
						}
					}
				}
			}
			JOINT rCollar
			{
				OFFSET -3.470700 6.669187 -0.816635 
				CHANNELS 3 Yrotation Zrotation Xrotation
				JOINT rShldr
				{
					OFFSET -3.198488 0.000000 0.000000 
					CHANNELS 3 Zrotation Yrotation Xrotation
					JOINT rForeArm
					{
						OFFSET -10.139888 0.000000 0.000000 
						CHANNELS 3 Yrotation Zrotation Xrotation
						JOINT rHand
						{
							OFFSET -8.370511 0.000000 0.000000 
							CHANNELS 3 Zrotation Yrotation Xrotation
							End Site
							{
								OFFSET -4.083176 0.000000 0.000000 
							}
						}
					}
				}
			}
		}
	}
	JOINT lThigh
	{
		OFFSET 5.308129 -1.633274 1.361059 
		CHANNELS 3 Xrotation Zrotation Yrotation
		JOINT lShin
		{
			OFFSET -2.041588 -20.007561 0.000000 
			CHANNELS 3 Xrotation Zrotation Yrotation
			JOINT lFoot
			{
				OFFSET 0.000000 -19.190928 -1.224953 
				CHANNELS 3 Xrotation Yrotation Zrotation
				End Site
				{
					OFFSET 0.000000 -2.449906 4.627600 
				}
			}
		}
	}
	JOINT rThigh
	{
		OFFSET -5.308129 -1.633274 1.361059 
		CHANNELS 3 Xrotation Zrotation Yrotation
		JOINT rShin
		{
			OFFSET 2.041588 -20.007561 0.000000 
			CHANNELS 3 Xrotation Zrotation Yrotation
			JOINT rFoot
			{
				OFFSET 0.000000 -19.190928 -1.224953 
				CHANNELS 3 Xrotation Yrotation Zrotation
				End Site
				{
					OFFSET 0.000000 -2.449906 4.627600 
				}
			}
		}
	}
}
MOTION
Frames: 12
Frame Time: 0.033333
0.091725 23.539377 0.091725 -4.962764 -1.989364 -28.187134 13.174534 14.584741 -18.966320 -0.019531 0.000000 -0.019531 -8.544922 -0.001505 -0.009645 20.775484 18.026701 45.639481 2.000000 -2.000000 0.000000 -4.749658 -58.193546 -51.999947 -55.673222 -0.551803 8.634238 -59.834553 -28.730053 -140.793961 -2.000000 2.000000 0.000000 136.264786 40.173939 75.828133 65.336670 0.520452 8.728421 3.625089 -37.797138 -28.504393 -127.582565 41.092270 -19.974823 119.572472 4.458200 -3.507663 1.863209 7.240037 4.813559 -22.700111 -36.812511 17.554335 125.608696 -4.841458 3.217958 -20.566263 27.492853 37.562756 
0.091725 24.025198 0.091725 -5.138930 -2.105717 -29.342434 12.723898 15.098625 -19.792791 -0.019531 0.000000 -0.019531 -8.544922 -0.001505 -0.009645 21.251898 17.497999 46.462162 2.000000 -2.000000 0.000000 -16.223297 -55.078918 -40.690735 -72.103020 -0.509128 8.795140 -54.881786 -20.522263 -149.172882 -2.000000 2.000000 0.000000 122.551437 37.035313 66.843437 80.404434 0.506852 8.880733 7.522719 -40.062241 -31.078936 -126.307686 43.434273 -19.802036 118.194473 4.371738 -3.549176 1.384483 7.273885 5.372258 -24.995821 -37.741455 18.318184 124.982681 -4.820078 3.232908 -13.208477 29.456772 35.077309 
0.091725 24.170456 0.091725 -5.236865 -2.183284 -29.956732 12.483237 15.369853 -20.233921 -0.019531 0.000000 -0.019531 -8.544922 -0.001505 -0.009645 21.518715 17.212847 46.902660 2.000000 -2.000000 0.000000 -19.489206 -52.832970 -37.987957 -75.566826 -0.506009 8.836380 -54.853989 -18.990700 -148.775299 -2.000000 2.000000 0.000000 120.863914 36.052601 66.438843 79.441551 0.509859 8.869415 6.761656 -36.316616 -30.939743 -126.204590 44.529266 -20.205679 118.301620 4.361904 -3.565035 0.756875 7.291895 5.543891 -24.388680 -38.111328 18.169983 123.465599 -4.742862 3.308146 -11.953134 30.232862 34.750874 
0.091725 24.300669 0.091725 -5.236916 -2.202764 -30.160028 12.408680 15.464271 -20.364393 -0.019531 0.000000 -0.019531 -8.544922 -0.001505 -0.009645 21.594852 17.131409 47.045620 2.000000 -2.000000 0.000000 -21.823580 -51.695114 -35.691639 -78.395966 -0.510339 8.860831 -54.578442 -17.576372 -148.405762 -2.000000 2.000000 0.000000 118.321472 34.821430 65.423027 80.100441 0.503755 8.881941 5.513312 -33.490852 -30.472595 -125.819092 44.937996 -20.172182 118.379868 4.381234 -3.552294 0.236612 7.282803 5.509840 -22.912325 -37.845520 17.369406 121.870956 -4.636967 3.384316 -13.588751 30.126167 35.259686 
0.091725 24.425886 0.091725 -5.236862 -2.183289 -29.995794 12.471329 15.386107 -20.251408 -0.019531 0.000000 -0.019531 -8.544922 -0.001505 -0.009645 21.528233 17.202665 46.932747 2.000000 -2.000000 0.000000 -23.574293 -51.469643 -33.479137 -80.765060 -0.504691 8.884073 -54.107445 -16.195669 -148.034515 -2.000000 2.000000 0.000000 115.125229 33.338390 63.957359 81.992599 0.511497 8.896033 3.869560 -31.313847 -29.738289 -125.195999 44.831161 -19.858065 118.477585 4.380168 -3.554112 -0.194418 7.193040 5.301999 -21.213795 -37.406349 16.319433 120.452820 -4.548991 3.444514 -16.070927 29.586452 36.051682 
0.091725 24.526058 0.091725 -5.168292 -2.125107 -29.573978 12.636124 15.203090 -19.951515 -0.019531 0.000000 -0.019531 -8.544922 -0.001505 -0.009645 21.357460 17.395475 46.630009 2.000000 -2.000000 0.000000 -24.941446 -51.935444 -31.290770 -82.759644 -0.510757 8.911212 -53.463120 -14.838534 -147.680145 -2.000000 2.000000 0.000000 111.522835 31.575268 62.284542 84.699844 0.508206 8.935165 1.888306 -29.471958 -28.771721 -124.428810 44.314922 -19.250355 118.536606 4.390063 -3.538029 -0.541668 7.123027 5.021452 -19.712915 -37.252373 15.167196 119.406525 -4.490381 3.483371 -17.318041 29.136307 36.485966 
0.091725 24.626232 0.091725 -5.089973 -2.066914 -28.976589 12.873479 14.938108 -19.526794 -0.019531 0.000000 -0.019531 -8.544922 -0.001505 -0.009645 21.099878 17.670555 46.195698 2.000000 -2.000000 0.000000 -26.087276 -52.861084 -29.019213 -84.467461 -0.514589 8.927054 -52.714184 -13.487825 -147.341812 -2.000000 2.000000 0.000000 107.749481 29.541658 60.582275 87.834702 0.518735 8.956055 -0.342736 -27.749130 -27.614399 -123.562424 43.521717 -18.516254 118.575470 4.392491 -3.543124 -0.854785 7.039972 4.658255 -18.588108 -37.201157 14.146757 118.849075 -4.461175 3.505903 -17.967869 28.611412 36.727440 
0.091725 24.726404 0.091725 -4.992070 -1.989292 -28.293537 13.136451 14.630559 -19.041155 -0.019531 0.000000 -0.019531 -8.544922 -0.001505 -0.009645 20.813095 17.976370 45.710045 2.000000 -2.000000 0.000000 -23.382046 -54.169296 -32.273026 -79.042091 -0.512561 8.866940 -53.740051 -17.452827 -145.890320 -2.000000 2.000000 0.000000 112.200943 31.555576 62.752869 84.807182 0.511701 8.936654 -0.773293 -30.775105 -26.883480 -122.698654 42.585907 -17.783102 118.663719 4.399745 -3.531474 -1.148557 6.943232 4.245046 -17.682989 -36.823864 13.337187 118.741104 -4.470327 3.511511 -19.686146 27.597042 37.144253 
0.091725 24.821569 0.091725 -4.864898 -1.921453 -27.610371 13.387679 14.322933 -18.560509 -0.019531 0.000000 -0.019531 -8.544922 -0.001505 -0.009645 20.526344 18.291901 45.220383 2.000000 -2.000000 0.000000 -20.050600 -55.809536 -35.835907 -73.031227 -0.510181 8.809738 -54.902592 -21.324606 -144.217529 -2.000000 2.000000 0.000000 116.824142 33.526211 65.099197 81.459328 0.510954 8.888598 -1.209826 -33.519596 -26.241390 -121.858292 41.609203 -17.042486 118.712593 4.399741 -3.531336 -1.463620 6.862229 3.827518 -17.018105 -36.207355 12.784249 118.908104 -4.461208 3.496144 -22.051470 26.264498 37.619461 
0.091725 24.926741 0.091725 -4.796361 -1.853432 -26.993366 13.611207 14.044595 -18.136042 -0.019531 0.000000 -0.019531 -8.544922 -0.001505 -0.009645 20.266420 18.557850 44.789272 2.000000 -2.000000 0.000000 -16.051716 -57.510868 -39.893414 -66.487457 -0.521235 8.742562 -56.314850 -25.100973 -142.233261 -2.000000 2.000000 0.000000 121.880310 35.461517 67.840637 77.448830 0.503658 8.855904 -1.542539 -35.833759 -25.731228 -121.070869 40.770470 -16.440985 118.790459 4.399710 -3.540537 -1.787356 6.803593 3.471900 -16.605240 -35.481407 12.463706 119.308708 -4.480646 3.490477 -24.656361 24.765558 38.009075 
0.091725 25.026920 0.091725 -4.718098 -1.804918 -26.599510 13.771290 13.860591 -17.837305 -0.019531 0.000000 -0.019531 -8.544922 -0.001505 -0.009645 20.082983 18.742212 44.470585 2.000000 -2.000000 0.000000 -11.386330 -59.010040 -44.554108 -59.429756 -0.539093 8.666624 -58.114227 -28.731556 -139.825943 -2.000000 2.000000 0.000000 127.658966 37.356514 71.167564 72.312042 0.508636 8.807074 -1.604777 -37.438942 -25.529573 -120.396317 40.203880 -15.926328 118.849144 4.409410 -3.534064 -2.158892 6.742807 3.179622 -16.452112 -34.743214 12.409103 119.777901 -4.528155 3.465663 -27.176956 23.294359 38.267612 
0.091725 25.132093 0.091725 -4.698545 -1.795209 -26.425142 13.831256 13.772559 -17.730970 -0.019531 0.000000 -0.019531 -8.544922 -0.001505 -0.009645 20.015574 18.813669 44.363846 2.000000 -2.000000 0.000000 -6.100890 -60.103054 -49.779713 -51.841244 -0.578476 8.597901 -60.431923 -32.219894 -136.855972 -2.000000 2.000000 0.000000 134.562103 39.081596 75.422203 65.505203 0.519734 8.730457 -1.334574 -38.051262 -25.679319 -119.839264 40.067017 -15.658643 118.927719 4.409432 -3.524352 -2.625705 6.687769 3.010018 -16.518913 -34.106220 12.651336 120.188667 -4.529508 3.460315 -29.295843 22.080019 38.403606 
